<?xml version="1.0" standalone="no"?>
<!DOCTYPE svg PUBLIC "-//W3C//DTD SVG 20010904//EN"
 "http://www.w3.org/TR/2001/REC-SVG-20010904/DTD/svg10.dtd">
<svg version="1.0" xmlns="http://www.w3.org/2000/svg"
 width="225.000000pt" height="225.000000pt" viewBox="0 0 225.000000 225.000000"
 preserveAspectRatio="xMidYMid meet">

<g transform="translate(0.000000,225.000000) scale(0.100000,-0.100000)"
fill="#5e72e4" stroke="none">
<path d="M1003 2100 c-233 -33 -400 -117 -568 -285 -113 -113 -169 -195 -221
-323 -149 -370 -57 -796 233 -1073 133 -126 264 -199 442 -246 137 -36 333
-36 472 0 370 97 642 378 726 751 26 116 21 318 -10 437 -94 357 -361 625
-712 714 -111 28 -264 39 -362 25z m224 -382 c29 -29 37 -45 40 -85 8 -93 -50
-158 -142 -158 -38 0 -62 6 -82 21 -69 51 -83 157 -27 216 39 41 60 48 122 45
46 -3 59 -9 89 -39z m41 -695 l2 -313 58 0 c79 0 84 -5 80 -81 l-3 -64 -280 0
-280 0 -3 64 c-4 76 1 81 81 81 l57 0 0 240 0 240 -54 0 c-83 0 -86 3 -86 74
0 35 3 66 7 70 4 3 99 5 212 4 l206 -3 3 -312z"/>
</g>
</svg>
